DataType=double
version=3
OpenSimVersion=4.5-2023-11-26-efcdfd3eb
endheader
time	EMG01_right_gast_med	EMG02_right_glut_max	EMG03_left_gast_med	EMG04_left_glut_max	EMG05_right_glut_med	EMG06_right_bic_fem	EMG07_right_rect_fem	EMG08_right_vast_lat	EMG09_right_vast_med	EMG10_right_tens_fasc_lat	EMG11_left_glut_med	EMG12_left_bic_fem	EMG13_left_rect_fem	EMG14_left_vast_lat	EMG15_left_vast_med	EMG16_left_tens_fasc_lat
1.52	0.3979048084949743	0.03962411712349901	-0.02092951638250775	0.0790600671001794	0.0237232322590283	0.01120411051681668	0.02315406963590088	0.0110436624160645	0.03383834378206448	0.1055613341142413	0.07184760753589987	0.04663979828255863	0.01459403890797186	0.01992528264122546	0.00708767357990586	0.1123178161836756
1.53	0.4050282832483711	0.03520954197431118	-0.0182901254963575	0.07638599136882547	0.02358466102848301	0.01206212847479265	0.02122722489151999	0.01044544919724576	0.0305090046797498	0.09762286697247315	0.07737082797095542	0.05046642147984908	0.01639154854898189	0.02177234304901446	0.006482137625169311	0.1139889332735442
1.54	0.4114554600186344	0.03101894106790544	-0.01534785644473344	0.07363822907168799	0.02384805165247389	0.01336561675915789	0.01952907296962179	0.009936561288113356	0.02736836833529349	0.08998011634185384	0.08335649586783044	0.0544120574386965	0.01845174252029661	0.02389421348925608	0.006160051782537098	0.1159044463234263
1.55	0.4171461388452365	0.0270857905134995	-0.01215050806968421	0.070848945897812	0.02453332928340141	0.01506023592240384	0.01807415441738455	0.009517302579047694	0.02443444878840369	0.08271422060387816	0.08979993697289182	0.05845535307753449	0.02077188281491522	0.02628871305471725	0.006147760046751497	0.1180841661443681
1.56	0.4220572709448954	0.02344200398503691	-0.008741977121693533	0.06804971961319461	0.02565663169448027	0.01709062188699857	0.01687461956305844	0.009187071056569822	0.0217224473981418	0.07589981609056455	0.09669139737942742	0.0625735672864934	0.02334671620941801	0.02895013323044281	0.006468780752992584	0.1205419482597704
1.57	0.4261427446249141	0.02011776671923739	-0.005162110086363253	0.06527124060307835	0.02722984737276794	0.01940106204230699	0.01594015647235553	0.00894441630754339	0.01924472862380766	0.06960426455744081	0.1040159368927125	0.06674274379076206	0.02616829795870203	0.03186914082555776	0.00714340939924057	0.1232852781923995
1.58	0.4293534609303252	0.01714138007407228	-0.001446650611303807	0.06254303787059032	0.02926018075421218	0.02193613516822209	0.0152779367492259	0.008787103360373324	0.01701082793393339	0.0638870103171963	0.111753394864998	0.07093787481756397	0.029225837704948	0.03503273405855944	0.008188351282607824	0.1263149869487464
1.59	0.4316377367407224	0.01453911328992707	0.00237272602905752	0.05989322481936606	0.03174975588851019	0.02464131400556893	0.01489257687476197	0.008712180733117813	0.01502748890888733	0.05879906721471295	0.1198784286674225	0.07513305079141695	0.03250557423708773	0.03842425608329956	0.009616388802564808	0.1296251002149701
1.6	0.432942059342924	0.01233505850815523	0.006268301219989618	0.05734825951316023	0.0346952689671343	0.02746352887253528	0.01478611337719159	0.008716050457801803	0.01329872652363323	0.0543826333815236	0.128360622546927	0.07930159573027191	0.03599068674337949	0.04202346916209997	0.011436088447785	0.1332028236618642
1.61	0.4332121995046908	0.01055098483062516	0.01021613476476246	0.05493271571215685	0.03808769903117321	0.03035168997051918	0.01495799093537664	0.008794537935181885	0.01182591361701397	0.05067082995936183	0.1371646608669205	0.08341619228213484	0.03966125061333362	0.04580669146491113	0.01365155252279459	0.1370286664664574
1.62	0.4323946699843661	0.009206187535102746	0.01419583141072259	0.05266906355995693	0.04191208499974539	0.03325716528362752	0.01540506324319176	0.008942959816836293	0.01060788765659221	0.04768755876975268	0.1462505552790742	0.08744900274713654	0.04349424550462279	0.04974699698523346	0.01626222050091137	0.1410767052231618
1.63	0.4304384943677689	0.008317329571369748	0.0181902637278952	0.05057746177771963	0.04614737611348605	0.03613421039476645	0.01612160691861029	0.009156188687167069	0.009641075036189732	0.04544747329621174	0.1555739120422211	0.09137179292308188	0.04746362254821315	0.05381447726284937	0.01926272455490716	0.1453149897076927
1.64	0.4272972283063859	0.007898273921953549	0.02218526299704255	0.04867556583136482	0.05076636217031258	0.03894034630330144	0.01709934889841757	0.009428713952331063	0.008919630197264231	0.04395605720948352	0.1650862254492886	0.09515606548515432	0.05154043651462762	0.05797656166373064	0.02264280339585733	0.1497060894279262
1.65	0.4229311528360178	0.00795990699922982	0.02616928962555488	0.0469783582995778	0.05573568966664217	0.04163668181595025	0.01832750767269819	0.009754698831544551	0.008435586831689995	0.043209804617435	0.1747351861566677	0.09877320991027543	0.05569304749384772	0.06219839119267488	0.02638727805014546	0.1542077752643081
1.66	0.4173095394061215	0.008509954823766245	0.03013309426600442	0.04549800845438609	0.06101597000282481	0.0441881785767812	0.01979284851076029	0.01012803361191583	0.008179018388188776	0.04319649599885234	0.1844649970930404	0.1021946765788708	0.05988739497016771	0.06644323942629286	0.03047609256775533	0.1587738243549703
1.67	0.4104128713401647	0.009552795277849342	0.0340693802975972	0.0442437678359866	0.06656198582573611	0.04656385893881841	0.02147975268122202	0.01054238541568766	0.008138205140178836	0.04389556346183172	0.1942166936673521	0.10539218280611	0.06408734506912786	0.07067297317094091	0.03488442188032049	0.1633549299245297
1.68	0.4022348991420473	0.0110892711474853	0.0379724776531814	0.04322190752349054	0.07232300094781151	0.04873695871751894	0.02337030071394067	0.01099124471657415	0.008299805205128477	0.04527853862841925	0.2039284711226005	0.1083379574799583	0.06825510936291197	0.07484854470947858	0.03958284821596206	0.1678996923427565
1.69	0.3927844082220355	0.01311650974857224	0.04183803710415109	0.04243570124182128	0.07824317808532788	0.05068502771080012	0.02544437005216004	0.01146796881712464	0.008649027173679791	0.04730957598677461	0.2135360310695039	0.1110050285206129	0.07235173110282218	0.07893050675948114	0.04453760671651512	0.1723556641286579
1.7	0.3820865871407601	0.01562775557011852	0.04566275306499949	0.04188545665184089	0.08426210719750075	0.05238998077702699	0.02767974800347407	0.01196582255253298	0.009169802430348879	0.04994604404012071	0.2229729682006451	0.1133675537676861	0.07633763216583139	0.08287954037431607	0.04971090014749857	0.1766704197764735
1.71	0.3701839023496175	0.01861222263765769	0.04944412184002987	0.04156859523776463	0.09031544565630807	0.05383810174337512	0.03005226175193467	0.01247801668109584	0.009844955742230236	0.05313917627330251	0.2321712224805133	0.1154011916938337	0.08017321136014467	0.08665698510446322	0.05506128168957648	0.1807926206302817
1.72	0.3571364108474719	0.02205497339336107	0.05318024103695374	0.04147977935129606	0.09633566969754753	0.05502000207073735	0.03253592832584873	0.01299774476283159	0.01065637316582959	0.05683477373554242	0.2410616204533609	0.1170835041129224	0.08381948218221721	0.09022536025276302	0.06054410359795033	0.1846730451726789
1.73	0.3430214741257946	0.02593683098552054	0.05686965447987855	0.04161108351345152	0.1022529342741573	0.05593053658239571	0.03510312851758601	0.01351821973690162	0.0115851668103691	0.06097395040665756	0.2495745231390039	0.11839437911499	0.08723873607640693	0.09354886669394574	0.06611202798579509	0.1882655559186752
1.74	0.3279328756460494	0.03023433200421444	0.06051124528400621	0.04195220605051084	0.1079960352392398	0.05656867984926607	0.03772480933192782	0.01403271173806323	0.01261183654757497	0.06549391140383326	0.2576405891017994	0.1193164590047691	0.0903952160837474	0.09659386097805663	0.0717155942708448	0.1915279760929308
1.75	0.3119793873927946	0.0349197267804468	0.06410417797548087	0.04249071620330792	0.1134934636585066	0.05693736844266171	0.04037071936106653	0.01453458880440486	0.01371642930702362	0.07032875313529384	0.2651916513392998	0.1198355554693617	0.09325578523521327	0.09932929673145741	0.07730383609361627	0.1944228532179198
1.76	0.2952828684577843	0.03996103425612094	0.06764788882631091	0.04321233064051754	0.1186745372441359	0.05704331520785339	0.0430096806481307	0.01501736197823856	0.01487869707869473	0.07541027425697815	0.2721616968956579	0.1199410332304488	0.09579057331980474	0.1017271309942922	0.08282493890507776	0.1969180924532214
1.77	0.2779759993681579	0.04532215808619473	0.07114212183492596	0.04410121179579434	0.1234705887940076	0.05689680136341117	0.04560989929257053	0.0154747359661431	0.01607825516410467	0.08066878641029962	0.2784879285785343	0.1196261444943297	0.09797358423514066	0.1037626937602081	0.08822692814949218	0.198987448531125
1.78	0.2601997596270405	0.05096307001877667	0.07458700582236011	0.04514027888757348	0.1278161865062337	0.05651145075042794	0.04813931543449302	0.01590066611902637	0.01729474251273261	0.0860339133444406	0.2841118781996851	0.1188882991872427	0.09978324473504761	0.1054150179818912	0.09345837719930547	0.2006108701962019
1.79	0.2421007505758716	0.05684006567079088	0.07798316586758827	0.04631152125039252	0.1316503565248682	0.05590398852465318	0.05056599147342426	0.0162894220428653	0.01850798602213985	0.09143536586248437	0.2889805309476126	0.1177292590620032	0.1012028755694223	0.1066671260949221	0.09846912363107335	0.2017746947241031
